# xmcd
#
# Track frame offsets:
# 150
# 13595
# 26435
# 36668
# 51120
# 64865
# 78515
# 89533
# 100638
# 116405
#
# Disc length: 1741 seconds
#
#
# Revision: 0
# Processed by: cddbd v1.5.1PL0 Copyright (c) Steve Scherf et al.
# Submitted via: FreeRIP 2.942 
#
DISCID=7a06cb0a
DTITLE=David Houston - At His Best
DYEAR=1994
DGENRE=Country
TTITLE0=Barroom Champagne
TTITLE1=Touch My World
TTITLE2=Because
TTITLE3=I Didn't Know She Was Loving Me Goodbye
TTITLE4=I Hate To Tell Baby A Lie
TTITLE5=Love Is A Miracle
TTITLE6=I'll Take You Home Again Kathleen
TTITLE7=Maiden's Prayer
TTITLE8=No Tell Motel
TTITLE9=Softer Than A Rose
EXTD=Power Pak
EXTT0=
EXTT1=
EXTT2=
EXTT3=
EXTT4=
EXTT5=
EXTT6=
EXTT7=
EXTT8=
EXTT9=
PLAYORDER=
